<svg xmlns="http://www.w3.org/2000/svg" viewBox="0 0 135 40">
  <rect width="135" height="40" rx="5" fill="#000"/>
  <rect x=".5" y=".5" width="134" height="39" rx="4.5" fill="none" stroke="#A6A6A6" stroke-width=".8"/>
  <path d="M24.77 20.3a4.95 4.95 0 012.36-4.15 5.07 5.07 0 00-3.99-2.16c-1.68-.18-3.31 1-4.16 1-.87 0-2.18-1-3.59-.98a5.32 5.32 0 00-4.47 2.73c-1.93 3.34-.49 8.27 1.36 10.97.93 1.33 2.01 2.82 3.43 2.76 1.39-.06 1.91-.88 3.58-.88s2.14.88 3.59.85c1.49-.03 2.43-1.33 3.33-2.67a10.96 10.96 0 001.51-3.09 4.78 4.78 0 01-2.95-4.38zM22.04 12.21a4.87 4.87 0 001.12-3.5 4.96 4.96 0 00-3.21 1.66 4.64 4.64 0 00-1.15 3.36 4.1 4.1 0 003.24-1.52z" fill="#FFF"/>
  <text fill="#FFF" font-family="Segoe UI,Roboto,Helvetica Neue,Arial,sans-serif" font-size="5.5" letter-spacing=".3"><tspan x="42.5" y="12">Download on the</tspan></text>
  <text fill="#FFF" font-family="Segoe UI,Roboto,Helvetica Neue,Arial,sans-serif" font-size="14" font-weight="600"><tspan x="42" y="28">App Store</tspan></text>
</svg>
