<svg xmlns="http://www.w3.org/2000/svg" viewBox="0 0 135 40">
  <defs>
    <linearGradient id="a" x1="21.8" y1="33.29" x2="5.02" y2="16.51" gradientUnits="userSpaceOnUse">
      <stop offset="0" stop-color="#00A0FF"/>
      <stop offset=".26" stop-color="#00BEFF"/>
      <stop offset=".51" stop-color="#00D2FF"/>
      <stop offset=".76" stop-color="#00DFFF"/>
      <stop offset="1" stop-color="#00E3FF"/>
    </linearGradient>
    <linearGradient id="b" x1="33.83" y1="20" x2="9.64" y2="20" gradientUnits="userSpaceOnUse">
      <stop offset="0" stop-color="#FFE000"/>
      <stop offset=".41" stop-color="#FFBD00"/>
      <stop offset=".78" stop-color="#FFA500"/>
      <stop offset="1" stop-color="#FF9C00"/>
    </linearGradient>
    <linearGradient id="c" x1="24.83" y1="17.6" x2="2.07" y2="-5.16" gradientUnits="userSpaceOnUse">
      <stop offset="0" stop-color="#FF3A44"/>
      <stop offset="1" stop-color="#C31162"/>
    </linearGradient>
    <linearGradient id="d" x1="7.3" y1="39.97" x2="17.46" y2="29.81" gradientUnits="userSpaceOnUse">
      <stop offset="0" stop-color="#32A071"/>
      <stop offset=".07" stop-color="#2DA771"/>
      <stop offset=".48" stop-color="#15CF74"/>
      <stop offset=".8" stop-color="#06E775"/>
      <stop offset="1" stop-color="#00F076"/>
    </linearGradient>
  </defs>
  <rect width="135" height="40" rx="5" fill="#000"/>
  <rect x=".5" y=".5" width="134" height="39" rx="4.5" fill="none" stroke="#A6A6A6" stroke-width=".8"/>
  <path d="M10.44 7.54a2 2 0 00-.46 1.4v22.12a2 2 0 00.46 1.4l.07.07L22.6 20.44v-.54L10.51 7.47z" fill="url(#a)"/>
  <path d="M26.63 24.49l-4-4.05v-.88l4-4.05.09.05 4.8 2.73c1.37.78 1.37 2.05 0 2.83l-4.8 2.73z" fill="url(#b)"/>
  <path d="M26.72 24.44L22.6 20.17 10.44 32.46a1.63 1.63 0 002.08.06l14.2-8.08" fill="url(#d)"/>
  <path d="M26.72 15.56L12.52 7.48a1.63 1.63 0 00-2.08.06L22.6 19.83z" fill="url(#c)"/>
  <text fill="#FFF" font-family="Segoe UI,Roboto,Helvetica Neue,Arial,sans-serif" font-size="5.5" letter-spacing=".5"><tspan x="47.5" y="12">GET IT ON</tspan></text>
  <text fill="#FFF" font-family="Segoe UI,Roboto,Helvetica Neue,Arial,sans-serif" font-size="13"><tspan x="47" y="28">Google play</tspan></text>
</svg>
